TITLE ""
FILE "2Q_j_1314-1327.mp3" MP3
  TRACK 01 AUDIO
    TITLE "2Q_j_1314-1327_01"
    INDEX 01 00:00:00
  TRACK 02 AUDIO
    TITLE "2Q_j_1314-1327_02"
    INDEX 01 00:00:08
  TRACK 03 AUDIO
    TITLE "2Q_j_1314-1327_03"
    INDEX 01 00:01:49
  TRACK 04 AUDIO
    TITLE "2Q_j_1314-1327_04"
    INDEX 01 00:02:31
  TRACK 05 AUDIO
    TITLE "2Q_j_1314-1327_05"
    INDEX 01 00:04:47
  TRACK 06 AUDIO
    TITLE "2Q_j_1314-1327_06"
    INDEX 01 00:05:17
  TRACK 07 AUDIO
    TITLE "2Q_j_1314-1327_07"
    INDEX 01 00:08:33
  TRACK 08 AUDIO
    TITLE "2Q_j_1314-1327_08"
    INDEX 01 00:09:07
  TRACK 09 AUDIO
    TITLE "2Q_j_1314-1327_09"
    INDEX 01 00:11:41
  TRACK 10 AUDIO
    TITLE "2Q_j_1314-1327_10"
    INDEX 01 00:12:15
  TRACK 11 AUDIO
    TITLE "2Q_j_1314-1327_11"
    INDEX 01 00:14:14
  TRACK 12 AUDIO
    TITLE "2Q_j_1314-1327_12"
    INDEX 01 00:14:57
  TRACK 13 AUDIO
    TITLE "2Q_j_1314-1327_13"
    INDEX 01 00:19:74
  TRACK 14 AUDIO
    TITLE "2Q_j_1314-1327_14"
    INDEX 01 00:20:46
  TRACK 15 AUDIO
    TITLE "2Q_j_1314-1327_15"
    INDEX 01 00:22:33
  TRACK 16 AUDIO
    TITLE "2Q_j_1314-1327_16"
    INDEX 01 00:23:07
  TRACK 17 AUDIO
    TITLE "2Q_j_1314-1327_17"
    INDEX 01 00:25:71
  TRACK 18 AUDIO
    TITLE "2Q_j_1314-1327_18"
    INDEX 01 00:26:39
  TRACK 19 AUDIO
    TITLE "2Q_j_1314-1327_19"
    INDEX 01 00:30:11
  TRACK 20 AUDIO
    TITLE "2Q_j_1314-1327_20"
    INDEX 01 00:30:62
  TRACK 21 AUDIO
    TITLE "2Q_j_1314-1327_21"
    INDEX 01 00:31:72
  TRACK 22 AUDIO
    TITLE "2Q_j_1314-1327_22"
    INDEX 01 00:32:42
  TRACK 23 AUDIO
    TITLE "2Q_j_1314-1327_23"
    INDEX 01 00:34:09
  TRACK 24 AUDIO
    TITLE "2Q_j_1314-1327_24"
    INDEX 01 00:34:54
  TRACK 25 AUDIO
    TITLE "2Q_j_1314-1327_25"
    INDEX 01 00:40:69
  TRACK 26 AUDIO
    TITLE "2Q_j_1314-1327_26"
    INDEX 01 00:41:43
  TRACK 27 AUDIO
    TITLE "2Q_j_1314-1327_27"
    INDEX 01 00:42:62
  TRACK 28 AUDIO
    TITLE "2Q_j_1314-1327_28"
    INDEX 01 00:43:34
  TRACK 29 AUDIO
    TITLE "2Q_j_1314-1327_29"
    INDEX 01 00:46:71
  TRACK 30 AUDIO
    TITLE "2Q_j_1314-1327_30"
    INDEX 01 00:47:41
  TRACK 31 AUDIO
    TITLE "2Q_j_1314-1327_31"
    INDEX 01 00:50:53
  TRACK 32 AUDIO
    TITLE "2Q_j_1314-1327_32"
    INDEX 01 00:51:25
  TRACK 33 AUDIO
    TITLE "2Q_j_1314-1327_33"
    INDEX 01 00:53:42
  TRACK 34 AUDIO
    TITLE "2Q_j_1314-1327_34"
    INDEX 01 00:54:16
  TRACK 35 AUDIO
    TITLE "2Q_j_1314-1327_35"
    INDEX 01 00:56:07
  TRACK 36 AUDIO
    TITLE "2Q_j_1314-1327_36"
    INDEX 01 00:56:50
  TRACK 37 AUDIO
    TITLE "2Q_j_1314-1327_37"
    INDEX 01 01:00:12
  TRACK 38 AUDIO
    TITLE "2Q_j_1314-1327_38"
    INDEX 01 01:00:60
  TRACK 39 AUDIO
    TITLE "2Q_j_1314-1327_39"
    INDEX 01 01:02:02
  TRACK 40 AUDIO
    TITLE "2Q_j_1314-1327_40"
    INDEX 01 01:02:47
  TRACK 41 AUDIO
    TITLE "2Q_j_1314-1327_41"
    INDEX 01 01:04:08
  TRACK 42 AUDIO
    TITLE "2Q_j_1314-1327_42"
    INDEX 01 01:04:55
  TRACK 43 AUDIO
    TITLE "2Q_j_1314-1327_43"
    INDEX 01 01:10:15
  TRACK 44 AUDIO
    TITLE "2Q_j_1314-1327_44"
    INDEX 01 01:10:62
  TRACK 45 AUDIO
    TITLE "2Q_j_1314-1327_45"
    INDEX 01 01:12:74
  TRACK 46 AUDIO
    TITLE "2Q_j_1314-1327_46"
    INDEX 01 01:13:46
  TRACK 47 AUDIO
    TITLE "2Q_j_1314-1327_47"
    INDEX 01 01:15:55
  TRACK 48 AUDIO
    TITLE "2Q_j_1314-1327_48"
    INDEX 01 01:16:25
  TRACK 49 AUDIO
    TITLE "2Q_j_1314-1327_49"
    INDEX 01 01:20:31
  TRACK 50 AUDIO
    TITLE "2Q_j_1314-1327_50"
    INDEX 01 01:21:03
  TRACK 51 AUDIO
    TITLE "2Q_j_1314-1327_51"
    INDEX 01 01:22:14
  TRACK 52 AUDIO
    TITLE "2Q_j_1314-1327_52"
    INDEX 01 01:22:65
  TRACK 53 AUDIO
    TITLE "2Q_j_1314-1327_53"
    INDEX 01 01:24:15
  TRACK 54 AUDIO
    TITLE "2Q_j_1314-1327_54"
    INDEX 01 01:24:60
  TRACK 55 AUDIO
    TITLE "2Q_j_1314-1327_55"
    INDEX 01 01:28:30
  TRACK 56 AUDIO
    TITLE "2Q_j_1314-1327_56"
    INDEX 01 01:29:08
  TRACK 57 AUDIO
    TITLE "2Q_j_1314-1327_57"
    INDEX 01 01:30:18
  TRACK 58 AUDIO
    TITLE "2Q_j_1314-1327_58"
    INDEX 01 01:30:66
  TRACK 59 AUDIO
    TITLE "2Q_j_1314-1327_59"
    INDEX 01 01:35:54
  TRACK 60 AUDIO
    TITLE "2Q_j_1314-1327_60"
    INDEX 01 01:36:22
  TRACK 61 AUDIO
    TITLE "2Q_j_1314-1327_61"
    INDEX 01 01:40:63
  TRACK 62 AUDIO
    TITLE "2Q_j_1314-1327_62"
    INDEX 01 01:41:35
  TRACK 63 AUDIO
    TITLE "2Q_j_1314-1327_63"
    INDEX 01 01:43:44
  TRACK 64 AUDIO
    TITLE "2Q_j_1314-1327_64"
    INDEX 01 01:44:20
  TRACK 65 AUDIO
    TITLE "2Q_j_1314-1327_65"
    INDEX 01 01:46:62
  TRACK 66 AUDIO
    TITLE "2Q_j_1314-1327_66"
    INDEX 01 01:47:32
  TRACK 67 AUDIO
    TITLE "2Q_j_1314-1327_67"
    INDEX 01 01:51:55
  TRACK 68 AUDIO
    TITLE "2Q_j_1314-1327_68"
    INDEX 01 01:52:27
  TRACK 69 AUDIO
    TITLE "2Q_j_1314-1327_69"
    INDEX 01 01:53:42
  TRACK 70 AUDIO
    TITLE "2Q_j_1314-1327_70"
    INDEX 01 01:54:12
  TRACK 71 AUDIO
    TITLE "2Q_j_1314-1327_71"
    INDEX 01 01:56:11
  TRACK 72 AUDIO
    TITLE "2Q_j_1314-1327_72"
    INDEX 01 01:56:54
  TRACK 73 AUDIO
    TITLE "2Q_j_1314-1327_73"
    INDEX 01 02:01:49
  TRACK 74 AUDIO
    TITLE "2Q_j_1314-1327_74"
    INDEX 01 02:02:25
  TRACK 75 AUDIO
    TITLE "2Q_j_1314-1327_75"
    INDEX 01 02:03:72
  TRACK 76 AUDIO
    TITLE "2Q_j_1314-1327_76"
    INDEX 01 02:04:50
  TRACK 77 AUDIO
    TITLE "2Q_j_1314-1327_77"
    INDEX 01 02:07:27
  TRACK 78 AUDIO
    TITLE "2Q_j_1314-1327_78"
    INDEX 01 02:07:72
  TRACK 79 AUDIO
    TITLE "2Q_j_1314-1327_79"
    INDEX 01 02:13:70
  TRACK 80 AUDIO
    TITLE "2Q_j_1314-1327_80"
    INDEX 01 02:14:40
  TRACK 81 AUDIO
    TITLE "2Q_j_1314-1327_81"
    INDEX 01 02:16:24
  TRACK 82 AUDIO
    TITLE "2Q_j_1314-1327_82"
    INDEX 01 02:16:73
  TRACK 83 AUDIO
    TITLE "2Q_j_1314-1327_83"
    INDEX 01 02:18:54
  TRACK 84 AUDIO
    TITLE "2Q_j_1314-1327_84"
    INDEX 01 02:19:24
  TRACK 85 AUDIO
    TITLE "2Q_j_1314-1327_85"
    INDEX 01 02:24:19
